<svg width="1201" height="570" viewBox="0 0 1201 570" fill="none" xmlns="http://www.w3.org/2000/svg">
<g clip-path="url(#clip0_38_2)" filter="url(#filter0_dd_38_2)">
<mask id="path-1-outside-1_38_2" maskUnits="userSpaceOnUse" x="392" y="201" width="633" height="196" fill="black">
<rect fill="white" x="392" y="201" width="633" height="196"/>
<path d="M429.162 258.168C433.316 260.316 440.62 265.616 451.076 274.066V274.926C451.076 275.57 448.641 278.292 443.771 283.09L443.342 283.949C443.628 313.454 443.771 333.936 443.771 345.395C443.771 347.829 443.915 353.272 444.201 361.723C445.49 362.868 446.206 363.441 446.35 363.441H447.639C449.501 360.863 451.219 359.574 452.795 359.574H455.803C456.232 359.574 457.951 361.293 460.959 364.73V365.16C453.439 372.966 444.989 379.984 435.607 386.215H434.748C430.738 383.923 422.43 376.762 409.826 364.73C412.476 363.871 414.768 361.579 416.701 357.855C417.561 354.776 417.99 352.198 417.99 350.121V346.254C417.99 332.576 417.561 310.948 416.701 281.371C415.34 280.727 412.906 278.435 409.396 274.496C412.834 270.128 419.423 264.685 429.162 258.168ZM430.021 210.795C440.979 221.394 446.457 226.872 446.457 227.23C435.858 238.259 430.38 243.773 430.021 243.773C418.993 233.174 413.479 227.66 413.479 227.23C424.077 216.273 429.592 210.795 430.021 210.795ZM526.998 226.156H527.427L527.857 228.305V261.82C530.578 262.393 532.727 262.68 534.302 262.68H539.459C545.474 262.68 548.482 263.109 548.482 263.969L548.912 266.547V273.422C548.912 276 547.623 277.289 545.045 277.289H544.615C541.464 277.289 537.74 277.003 533.443 276.43C529.146 277.003 526.998 278.435 526.998 280.727C526.998 281.443 527.141 282.589 527.427 284.164C527.141 306.938 526.998 326.13 526.998 341.742C526.998 344.32 526.854 349.333 526.568 356.781L538.17 365.375C538.742 365.375 540.891 363.799 544.615 360.648C545.116 360.362 545.689 360.219 546.334 360.219H546.763C547.909 360.792 548.768 361.651 549.341 362.797V364.945C548.41 366.163 539.673 373.181 523.13 386H522.271C513.463 378.91 505.155 373.467 497.349 369.672C494.198 369.672 492.336 368.526 491.763 366.234V365.805C491.763 364.802 493.625 362.654 497.349 359.359C499.641 351.195 500.787 339.307 500.787 323.695C500.5 316.605 500.357 309.587 500.357 302.641V288.891C500.357 286.456 500.5 282.875 500.787 278.148C499.569 277.361 496.561 276.788 491.763 276.43C490.331 275.284 489.615 274.568 489.615 274.281V273.852C494.485 265.258 506.946 249.359 526.998 226.156ZM629.023 258.812C637.688 263.181 652.584 272.491 673.71 286.742H674.57V287.602C674.57 289.464 672.421 291.898 668.124 294.906C668.124 295.193 667.981 295.622 667.695 296.195C667.981 325.987 668.267 345.896 668.554 355.922C672.994 359.789 676.861 361.794 680.155 361.938H684.023L684.882 361.508V365.375C679.439 371.82 674.57 375.688 670.273 376.977C666.047 382.419 662.753 385.141 660.39 385.141C659.101 385.141 652.655 380.414 641.054 370.961C638.333 370.961 632.603 374.828 623.866 382.562C620.501 384.854 618.209 386 616.991 386H612.265C611.191 386 606.464 382.992 598.085 376.977C591.711 373.611 586.698 371.462 583.046 370.531V369.672C583.046 368.096 584.765 365.805 588.202 362.797C589.062 356.566 589.635 347.257 589.921 334.867L588.632 284.594C592.141 282.374 600.305 278.077 613.124 271.703C620.715 265.831 625.872 261.534 628.593 258.812H629.023ZM615.702 285.883L616.562 355.922C625.227 361.938 630.24 364.945 631.601 364.945C637.831 361.221 641.269 359.359 641.913 359.359V301.352C635.468 295.121 628.45 289.678 620.859 285.023L619.57 283.734L615.702 285.883ZM735.559 387.074C731.907 387.074 723.886 380.629 711.497 367.738L708.489 364.301V363.012C709.348 359.431 709.778 352.699 709.778 342.816C709.778 333.721 709.921 313.383 710.208 281.801C720.091 276.788 730.117 270.056 740.286 261.605C746.087 256.449 749.381 253.871 750.169 253.871C758.046 260.46 762.486 263.754 763.489 263.754V263.324C764.062 258.454 764.348 255.59 764.348 254.73C764.062 247.283 763.919 241.41 763.919 237.113L763.489 234.965C764.277 234.965 772.871 228.663 789.27 216.059H790.559C790.559 220.212 790.416 229.379 790.13 243.559C790.416 255.805 790.989 264.112 791.848 268.48C793.782 268.48 799.798 264.9 809.895 257.738C810.182 257.738 810.325 257.882 810.325 258.168C810.325 267.908 803.736 277.074 790.559 285.668V356.137C790.559 357.497 793.567 361.365 799.583 367.738L800.013 369.887V372.465C799.082 372.823 792.636 377.549 780.677 386.645H780.247C768.502 374.04 762.63 367.452 762.63 366.879L735.559 387.074ZM762.63 352.27V325.629C762.63 316.534 762.773 304.359 763.059 289.105C757.187 289.105 748.45 286.527 736.848 281.371H736.419C736.132 295.551 735.989 306.579 735.989 314.457V319.613C735.989 327.921 736.132 339.379 736.419 353.988C742.506 360.29 746.373 363.441 748.02 363.441H748.88C750.813 363.441 755.397 359.717 762.63 352.27ZM890.866 255.375C908.125 273.852 919.583 285.74 925.241 291.039V293.188C916.289 302.283 902.825 314.171 884.85 328.852C884.85 329.138 882.415 331.43 877.545 335.727L877.975 338.734C877.975 340.238 877.689 344.249 877.116 350.766C877.116 356.638 879.694 360.219 884.85 361.508C887.357 362.797 890.651 364.229 894.733 365.805C895.664 365.805 900.82 362.654 910.202 356.352C911.347 355.779 912.923 355.492 914.928 355.492C916.504 355.492 918.366 356.781 920.514 359.359C909.342 369.385 897.168 378.266 883.991 386L855.631 373.109C848.541 371.605 844.961 370.603 844.889 370.102L844.459 367.953C844.459 367.38 846.465 365.375 850.475 361.938C851.621 348.904 852.194 336.443 852.194 324.555C852.194 298.773 851.334 285.883 849.616 285.883C844.459 285.31 841.881 283.734 841.881 281.156L890.866 255.375ZM877.545 280.727C877.259 284.092 877.116 286.527 877.116 288.031V290.609C877.116 300.707 877.545 310.303 878.405 319.398C890.149 308.799 896.595 303.214 897.741 302.641V302.211C893.229 297.126 886.497 289.965 877.545 280.727ZM992.461 213.266C993.392 213.266 994.395 260.961 995.469 356.352C995.469 356.924 997.188 358.5 1000.62 361.078C1003.56 363.943 1005.85 365.375 1007.5 365.375H1009.65C1010.87 364.587 1012.15 363.585 1013.52 362.367L1015.66 365.375V366.664C1009 373.826 1001.56 380.271 993.32 386H992.461C982.65 377.478 972.337 371.749 961.523 368.812L960.664 367.094C960.664 365.518 962.669 363.37 966.68 360.648C967.539 359.001 968.398 355.421 969.258 349.906L967.969 224.867C977.493 219.353 985.658 215.486 992.461 213.266Z"/>
</mask>
<g filter="url(#filter1_i_38_2)">
<path d="M429.162 258.168C433.316 260.316 440.62 265.616 451.076 274.066V274.926C451.076 275.57 448.641 278.292 443.771 283.09L443.342 283.949C443.628 313.454 443.771 333.936 443.771 345.395C443.771 347.829 443.915 353.272 444.201 361.723C445.49 362.868 446.206 363.441 446.35 363.441H447.639C449.501 360.863 451.219 359.574 452.795 359.574H455.803C456.232 359.574 457.951 361.293 460.959 364.73V365.16C453.439 372.966 444.989 379.984 435.607 386.215H434.748C430.738 383.923 422.43 376.762 409.826 364.73C412.476 363.871 414.768 361.579 416.701 357.855C417.561 354.776 417.99 352.198 417.99 350.121V346.254C417.99 332.576 417.561 310.948 416.701 281.371C415.34 280.727 412.906 278.435 409.396 274.496C412.834 270.128 419.423 264.685 429.162 258.168ZM430.021 210.795C440.979 221.394 446.457 226.872 446.457 227.23C435.858 238.259 430.38 243.773 430.021 243.773C418.993 233.174 413.479 227.66 413.479 227.23C424.077 216.273 429.592 210.795 430.021 210.795ZM526.998 226.156H527.427L527.857 228.305V261.82C530.578 262.393 532.727 262.68 534.302 262.68H539.459C545.474 262.68 548.482 263.109 548.482 263.969L548.912 266.547V273.422C548.912 276 547.623 277.289 545.045 277.289H544.615C541.464 277.289 537.74 277.003 533.443 276.43C529.146 277.003 526.998 278.435 526.998 280.727C526.998 281.443 527.141 282.589 527.427 284.164C527.141 306.938 526.998 326.13 526.998 341.742C526.998 344.32 526.854 349.333 526.568 356.781L538.17 365.375C538.742 365.375 540.891 363.799 544.615 360.648C545.116 360.362 545.689 360.219 546.334 360.219H546.763C547.909 360.792 548.768 361.651 549.341 362.797V364.945C548.41 366.163 539.673 373.181 523.13 386H522.271C513.463 378.91 505.155 373.467 497.349 369.672C494.198 369.672 492.336 368.526 491.763 366.234V365.805C491.763 364.802 493.625 362.654 497.349 359.359C499.641 351.195 500.787 339.307 500.787 323.695C500.5 316.605 500.357 309.587 500.357 302.641V288.891C500.357 286.456 500.5 282.875 500.787 278.148C499.569 277.361 496.561 276.788 491.763 276.43C490.331 275.284 489.615 274.568 489.615 274.281V273.852C494.485 265.258 506.946 249.359 526.998 226.156ZM629.023 258.812C637.688 263.181 652.584 272.491 673.71 286.742H674.57V287.602C674.57 289.464 672.421 291.898 668.124 294.906C668.124 295.193 667.981 295.622 667.695 296.195C667.981 325.987 668.267 345.896 668.554 355.922C672.994 359.789 676.861 361.794 680.155 361.938H684.023L684.882 361.508V365.375C679.439 371.82 674.57 375.688 670.273 376.977C666.047 382.419 662.753 385.141 660.39 385.141C659.101 385.141 652.655 380.414 641.054 370.961C638.333 370.961 632.603 374.828 623.866 382.562C620.501 384.854 618.209 386 616.991 386H612.265C611.191 386 606.464 382.992 598.085 376.977C591.711 373.611 586.698 371.462 583.046 370.531V369.672C583.046 368.096 584.765 365.805 588.202 362.797C589.062 356.566 589.635 347.257 589.921 334.867L588.632 284.594C592.141 282.374 600.305 278.077 613.124 271.703C620.715 265.831 625.872 261.534 628.593 258.812H629.023ZM615.702 285.883L616.562 355.922C625.227 361.938 630.24 364.945 631.601 364.945C637.831 361.221 641.269 359.359 641.913 359.359V301.352C635.468 295.121 628.45 289.678 620.859 285.023L619.57 283.734L615.702 285.883ZM735.559 387.074C731.907 387.074 723.886 380.629 711.497 367.738L708.489 364.301V363.012C709.348 359.431 709.778 352.699 709.778 342.816C709.778 333.721 709.921 313.383 710.208 281.801C720.091 276.788 730.117 270.056 740.286 261.605C746.087 256.449 749.381 253.871 750.169 253.871C758.046 260.46 762.486 263.754 763.489 263.754V263.324C764.062 258.454 764.348 255.59 764.348 254.73C764.062 247.283 763.919 241.41 763.919 237.113L763.489 234.965C764.277 234.965 772.871 228.663 789.27 216.059H790.559C790.559 220.212 790.416 229.379 790.13 243.559C790.416 255.805 790.989 264.112 791.848 268.48C793.782 268.48 799.798 264.9 809.895 257.738C810.182 257.738 810.325 257.882 810.325 258.168C810.325 267.908 803.736 277.074 790.559 285.668V356.137C790.559 357.497 793.567 361.365 799.583 367.738L800.013 369.887V372.465C799.082 372.823 792.636 377.549 780.677 386.645H780.247C768.502 374.04 762.63 367.452 762.63 366.879L735.559 387.074ZM762.63 352.27V325.629C762.63 316.534 762.773 304.359 763.059 289.105C757.187 289.105 748.45 286.527 736.848 281.371H736.419C736.132 295.551 735.989 306.579 735.989 314.457V319.613C735.989 327.921 736.132 339.379 736.419 353.988C742.506 360.29 746.373 363.441 748.02 363.441H748.88C750.813 363.441 755.397 359.717 762.63 352.27ZM890.866 255.375C908.125 273.852 919.583 285.74 925.241 291.039V293.188C916.289 302.283 902.825 314.171 884.85 328.852C884.85 329.138 882.415 331.43 877.545 335.727L877.975 338.734C877.975 340.238 877.689 344.249 877.116 350.766C877.116 356.638 879.694 360.219 884.85 361.508C887.357 362.797 890.651 364.229 894.733 365.805C895.664 365.805 900.82 362.654 910.202 356.352C911.347 355.779 912.923 355.492 914.928 355.492C916.504 355.492 918.366 356.781 920.514 359.359C909.342 369.385 897.168 378.266 883.991 386L855.631 373.109C848.541 371.605 844.961 370.603 844.889 370.102L844.459 367.953C844.459 367.38 846.465 365.375 850.475 361.938C851.621 348.904 852.194 336.443 852.194 324.555C852.194 298.773 851.334 285.883 849.616 285.883C844.459 285.31 841.881 283.734 841.881 281.156L890.866 255.375ZM877.545 280.727C877.259 284.092 877.116 286.527 877.116 288.031V290.609C877.116 300.707 877.545 310.303 878.405 319.398C890.149 308.799 896.595 303.214 897.741 302.641V302.211C893.229 297.126 886.497 289.965 877.545 280.727ZM992.461 213.266C993.392 213.266 994.395 260.961 995.469 356.352C995.469 356.924 997.188 358.5 1000.62 361.078C1003.56 363.943 1005.85 365.375 1007.5 365.375H1009.65C1010.87 364.587 1012.15 363.585 1013.52 362.367L1015.66 365.375V366.664C1009 373.826 1001.56 380.271 993.32 386H992.461C982.65 377.478 972.337 371.749 961.523 368.812L960.664 367.094C960.664 365.518 962.669 363.37 966.68 360.648C967.539 359.001 968.398 355.421 969.258 349.906L967.969 224.867C977.493 219.353 985.658 215.486 992.461 213.266Z" fill="#FF0000"/>
</g>
<path d="M429.162 258.168L433.297 250.174L428.575 247.732L424.157 250.688L429.162 258.168ZM451.076 274.066H460.076V269.768L456.733 267.067L451.076 274.066ZM443.771 283.09L437.455 276.679L436.39 277.728L435.722 279.065L443.771 283.09ZM443.342 283.949L435.292 279.924L434.321 281.866L434.342 284.037L443.342 283.949ZM444.201 361.723L435.206 362.028L435.337 365.885L438.222 368.449L444.201 361.723ZM447.639 363.441V372.441H452.24L454.935 368.711L447.639 363.441ZM460.959 364.73H469.959V361.349L467.732 358.804L460.959 364.73ZM460.959 365.16L467.441 371.404L469.959 368.79V365.16H460.959ZM435.607 386.215V395.215H438.324L440.587 393.712L435.607 386.215ZM434.748 386.215L430.283 394.029L432.358 395.215H434.748V386.215ZM409.826 364.73L407.05 356.169L392.699 360.824L403.612 371.241L409.826 364.73ZM416.701 357.855L424.689 362.003L425.119 361.174L425.37 360.275L416.701 357.855ZM416.701 281.371L425.697 281.11L425.537 275.598L420.554 273.237L416.701 281.371ZM409.396 274.496L402.324 268.931L397.662 274.855L402.677 280.483L409.396 274.496ZM430.021 210.795L436.279 204.326L433.662 201.795H430.021V210.795ZM446.457 227.23L452.946 233.467L455.457 230.854V227.23H446.457ZM430.021 243.773L423.785 250.263L426.398 252.773H430.021V243.773ZM413.479 227.23L407.01 220.973L404.479 223.59V227.23H413.479ZM425.027 266.162C428.243 267.825 434.864 272.536 445.419 281.066L456.733 267.067C446.377 258.696 438.389 252.808 433.297 250.174L425.027 266.162ZM442.076 274.066V274.926H460.076V274.066H442.076ZM442.076 274.926C442.076 273.642 442.36 272.668 442.518 272.2C442.694 271.678 442.882 271.295 442.987 271.093C443.101 270.875 443.196 270.722 443.244 270.648C443.295 270.568 443.327 270.525 443.328 270.524C443.33 270.52 443.315 270.541 443.278 270.588C443.242 270.635 443.19 270.699 443.121 270.782C442.981 270.951 442.791 271.171 442.543 271.449C441.516 272.597 439.849 274.32 437.455 276.679L450.088 289.501C452.563 287.062 454.549 285.025 455.957 283.451C456.643 282.684 457.338 281.866 457.912 281.074C458.19 280.689 458.579 280.12 458.937 279.436C459.126 279.076 460.076 277.317 460.076 274.926H442.076ZM435.722 279.065L435.292 279.924L451.392 287.974L451.821 287.115L435.722 279.065ZM434.342 284.037C434.629 313.544 434.771 333.985 434.771 345.395H452.771C452.771 333.887 452.628 313.365 452.341 283.862L434.342 284.037ZM434.771 345.395C434.771 348.012 434.921 353.619 435.206 362.028L453.196 361.418C452.908 352.925 452.771 347.646 452.771 345.395H434.771ZM438.222 368.449C438.901 369.053 439.54 369.605 440.083 370.04C440.335 370.242 440.714 370.537 441.142 370.822C441.344 370.957 441.736 371.21 442.244 371.464C442.35 371.518 444.038 372.441 446.35 372.441V354.441C447.702 354.441 448.726 354.751 449.162 354.897C449.68 355.069 450.073 355.254 450.294 355.365C450.73 355.583 451.033 355.783 451.127 355.846C451.34 355.988 451.433 356.068 451.327 355.984C451.154 355.845 450.791 355.538 450.18 354.996L438.222 368.449ZM446.35 372.441H447.639V354.441H446.35V372.441ZM454.935 368.711C455.229 368.304 455.457 368.032 455.612 367.864C455.771 367.693 455.812 367.675 455.724 367.741C455.584 367.846 454.553 368.574 452.795 368.574V350.574C449.462 350.574 446.783 351.947 444.924 353.341C443.081 354.723 441.575 356.465 440.343 358.172L454.935 368.711ZM452.795 368.574H455.803V350.574H452.795V368.574ZM455.803 368.574C454.415 368.574 453.357 368.247 452.823 368.053C452.238 367.84 451.803 367.608 451.559 367.469C451.083 367.197 450.789 366.96 450.744 366.924C450.63 366.832 450.707 366.884 451.05 367.227C451.695 367.872 452.721 368.983 454.186 370.657L467.732 358.804C466.189 357.041 464.852 355.573 463.778 354.499C463.262 353.983 462.641 353.39 461.989 352.869C461.675 352.618 461.153 352.22 460.49 351.841C460.157 351.651 458.343 350.574 455.803 350.574V368.574ZM451.959 364.73V365.16H469.959V364.73H451.959ZM454.477 358.916C447.429 366.233 439.486 372.835 430.628 378.718L440.587 393.712C450.492 387.134 459.45 379.699 467.441 371.404L454.477 358.916ZM435.607 377.215H434.748V395.215H435.607V377.215ZM439.213 378.401C438.037 377.728 435.534 375.884 431.386 372.308C427.394 368.867 422.288 364.184 416.04 358.22L403.612 371.241C409.968 377.308 415.318 382.222 419.633 385.942C423.793 389.527 427.449 392.41 430.283 394.029L439.213 378.401ZM412.603 373.291C418.418 371.406 422.208 366.779 424.689 362.003L408.714 353.708C407.327 356.379 406.534 356.337 407.05 356.169L412.603 373.291ZM425.37 360.275C426.344 356.783 426.99 353.33 426.99 350.121H408.99C408.99 351.065 408.777 352.769 408.032 355.436L425.37 360.275ZM426.99 350.121V346.254H408.99V350.121H426.99ZM426.99 346.254C426.99 332.436 426.557 310.698 425.697 281.11L407.705 281.632C408.564 311.198 408.99 332.715 408.99 346.254H426.99ZM420.554 273.237C421.04 273.468 421.211 273.635 420.986 273.46C420.81 273.324 420.496 273.06 420.023 272.615C419.074 271.722 417.783 270.38 416.116 268.509L402.677 280.483C404.519 282.551 406.2 284.324 407.686 285.723C408.961 286.922 410.788 288.529 412.848 289.505L420.554 273.237ZM416.469 280.062C418.974 276.879 424.542 272.088 434.167 265.648L424.157 250.688C414.303 257.281 406.694 263.377 402.324 268.931L416.469 280.062ZM423.764 217.264C429.234 222.555 433.299 226.532 435.984 229.217C437.336 230.569 438.283 231.538 438.868 232.161C439.01 232.312 439.117 232.429 439.195 232.516C439.278 232.608 439.305 232.641 439.296 232.629C439.289 232.622 439.259 232.586 439.214 232.527C439.173 232.474 439.083 232.358 438.972 232.195C438.882 232.065 438.651 231.721 438.407 231.239C438.342 231.109 437.457 229.492 437.457 227.23H455.457C455.457 224.947 454.562 223.297 454.475 223.125C454.21 222.6 453.946 222.204 453.814 222.012C453.533 221.602 453.258 221.267 453.105 221.083C452.766 220.678 452.369 220.245 451.992 219.842C451.207 219.006 450.099 217.876 448.712 216.489C445.918 213.695 441.766 209.634 436.279 204.326L423.764 217.264ZM439.968 220.994C434.677 226.5 430.699 230.592 428.014 233.294C426.662 234.656 425.693 235.608 425.069 236.197C424.918 236.34 424.801 236.449 424.714 236.528C424.622 236.611 424.589 236.639 424.601 236.629C424.608 236.623 424.644 236.593 424.703 236.547C424.755 236.505 424.871 236.416 425.034 236.303C425.165 236.213 425.508 235.98 425.992 235.734C426.12 235.669 427.746 234.773 430.021 234.773V252.773C432.319 252.773 433.978 251.867 434.148 251.78C434.674 251.513 435.07 251.248 435.263 251.115C435.672 250.832 436.008 250.555 436.191 250.401C436.595 250.06 437.029 249.661 437.431 249.282C438.266 248.492 439.397 247.377 440.784 245.981C443.577 243.169 447.638 238.99 452.946 233.467L439.968 220.994ZM436.258 237.284C430.754 231.995 426.67 228.017 423.978 225.325C422.621 223.967 421.683 223.002 421.11 222.385C420.808 222.06 420.711 221.941 420.729 221.963C420.741 221.978 420.779 222.025 420.832 222.097C420.881 222.162 420.979 222.296 421.099 222.481C421.2 222.637 421.431 223.005 421.668 223.517C421.793 223.788 422.479 225.231 422.479 227.23H404.479C404.479 229.257 405.175 230.736 405.322 231.054C405.579 231.613 405.843 232.038 405.987 232.26C406.285 232.72 406.579 233.092 406.745 233.297C407.108 233.744 407.527 234.21 407.914 234.627C408.721 235.496 409.85 236.653 411.25 238.052C414.073 240.875 418.26 244.953 423.785 250.263L436.258 237.284ZM419.947 233.488C425.237 228.02 429.215 223.963 431.907 221.288C433.264 219.94 434.229 219.008 434.845 218.44C435.171 218.14 435.289 218.043 435.267 218.062C435.251 218.074 435.205 218.111 435.133 218.165C435.067 218.213 434.933 218.311 434.748 218.43C434.593 218.53 434.226 218.759 433.715 218.993C433.443 219.118 432.009 219.795 430.021 219.795V201.795C428.008 201.795 426.536 202.483 426.218 202.629C425.66 202.884 425.237 203.146 425.015 203.289C424.555 203.584 424.182 203.877 423.977 204.042C423.53 204.403 423.064 204.819 422.646 205.204C421.777 206.006 420.62 207.128 419.22 208.519C416.398 211.323 412.319 215.484 407.01 220.973L419.947 233.488ZM526.998 226.156V217.156H522.88L520.188 220.271L526.998 226.156ZM527.427 226.156L536.253 224.391L534.806 217.156H527.427V226.156ZM527.857 228.305H536.857V227.414L536.682 226.54L527.857 228.305ZM527.857 261.82H518.857V269.123L526.003 270.627L527.857 261.82ZM548.482 263.969H539.482V264.714L539.604 265.448L548.482 263.969ZM548.912 266.547H557.912V265.802L557.789 265.067L548.912 266.547ZM533.443 276.43L534.632 267.509L533.443 267.35L532.253 267.509L533.443 276.43ZM527.427 284.164L536.427 284.277L536.438 283.409L536.282 282.554L527.427 284.164ZM526.568 356.781L517.575 356.435L517.392 361.184L521.211 364.013L526.568 356.781ZM538.17 365.375L532.812 372.607L535.199 374.375H538.17V365.375ZM544.615 360.648L540.15 352.834L539.432 353.244L538.801 353.778L544.615 360.648ZM546.763 360.219L550.788 352.169L548.888 351.219H546.763V360.219ZM549.341 362.797H558.341V360.672L557.391 358.772L549.341 362.797ZM549.341 364.945L556.491 370.412L558.341 367.992V364.945H549.341ZM523.13 386V395H526.209L528.643 393.114L523.13 386ZM522.271 386L516.628 393.011L519.099 395H522.271V386ZM497.349 369.672L501.285 361.578L499.421 360.672H497.349V369.672ZM491.763 366.234H482.763V367.342L483.032 368.417L491.763 366.234ZM497.349 359.359L503.312 366.1L505.298 364.344L506.014 361.792L497.349 359.359ZM500.787 323.695H509.787V323.514L509.779 323.332L500.787 323.695ZM500.787 278.148L509.77 278.693L510.088 273.447L505.676 270.592L500.787 278.148ZM491.763 276.43L486.141 283.458L488.316 285.197L491.094 285.405L491.763 276.43ZM489.615 273.852L481.785 269.414L480.615 271.479V273.852H489.615ZM526.998 235.156H527.427V217.156H526.998V235.156ZM518.602 227.921L519.032 230.07L536.682 226.54L536.253 224.391L518.602 227.921ZM518.857 228.305V261.82H536.857V228.305H518.857ZM526.003 270.627C528.947 271.247 531.804 271.68 534.302 271.68V253.68C533.649 253.68 532.21 253.539 529.711 253.013L526.003 270.627ZM534.302 271.68H539.459V253.68H534.302V271.68ZM539.459 271.68C542.368 271.68 544.104 271.79 544.953 271.911C545.469 271.985 545.098 271.988 544.373 271.677C544.016 271.524 543.008 271.062 541.977 270.031C540.808 268.861 539.482 266.788 539.482 263.969H557.482C557.482 257.709 552.083 255.398 551.463 255.132C549.986 254.499 548.487 254.234 547.499 254.092C545.341 253.784 542.565 253.68 539.459 253.68V271.68ZM539.604 265.448L540.034 268.026L557.789 265.067L557.36 262.489L539.604 265.448ZM539.912 266.547V273.422H557.912V266.547H539.912ZM539.912 273.422C539.912 273.324 539.942 271.597 541.581 269.958C543.22 268.32 544.946 268.289 545.045 268.289V286.289C547.721 286.289 551.381 285.614 554.309 282.686C557.237 279.759 557.912 276.098 557.912 273.422H539.912ZM545.045 268.289H544.615V286.289H545.045V268.289ZM544.615 268.289C541.978 268.289 538.67 268.047 534.632 267.509L532.253 285.351C536.81 285.958 540.95 286.289 544.615 286.289V268.289ZM532.253 267.509C529.551 267.869 526.358 268.618 523.617 270.445C520.41 272.583 517.998 276.151 517.998 280.727H535.998C535.998 281.624 535.769 282.674 535.196 283.666C534.647 284.618 533.987 285.165 533.601 285.422C533.242 285.662 533.076 285.683 533.297 285.614C533.504 285.55 533.928 285.445 534.632 285.351L532.253 267.509ZM517.998 280.727C517.998 282.318 518.278 284.153 518.573 285.774L536.282 282.554C536.158 281.873 536.08 281.365 536.036 281.007C535.986 280.61 535.998 280.557 535.998 280.727H517.998ZM518.428 284.051C518.141 306.847 517.998 326.08 517.998 341.742H535.998C535.998 326.181 536.14 307.028 536.427 284.277L518.428 284.051ZM517.998 341.742C517.998 344.12 517.862 348.963 517.575 356.435L535.561 357.127C535.847 349.703 535.998 344.521 535.998 341.742H517.998ZM521.211 364.013L532.812 372.607L543.527 358.143L531.925 349.549L521.211 364.013ZM538.17 374.375C540.001 374.375 541.394 373.823 541.854 373.636C542.498 373.374 543.035 373.082 543.404 372.868C544.151 372.436 544.887 371.925 545.533 371.451C546.86 370.478 548.514 369.138 550.428 367.519L538.801 353.778C536.991 355.31 535.71 356.333 534.888 356.936C534.46 357.25 534.319 357.329 534.385 357.291C534.414 357.274 534.66 357.13 535.063 356.966C535.271 356.881 535.616 356.752 536.065 356.637C536.487 356.529 537.226 356.375 538.17 356.375V374.375ZM549.08 368.463C548.069 369.041 547.069 369.219 546.334 369.219V351.219C544.309 351.219 542.164 351.683 540.15 352.834L549.08 368.463ZM546.334 369.219H546.763V351.219H546.334V369.219ZM542.738 368.269C542.493 368.146 542.194 367.948 541.903 367.657C541.613 367.366 541.414 367.067 541.292 366.822L557.391 358.772C555.947 355.884 553.676 353.613 550.788 352.169L542.738 368.269ZM540.341 362.797V364.945H558.341V362.797H540.341ZM542.192 359.478C542.603 358.941 542.902 358.709 542.513 359.068C542.281 359.283 541.903 359.618 541.343 360.095C540.232 361.041 538.613 362.371 536.454 364.105C532.148 367.565 525.877 372.486 517.618 378.886L528.643 393.114C536.927 386.695 543.296 381.698 547.727 378.139C549.936 376.364 551.71 374.91 553.016 373.797C553.664 373.245 554.251 372.731 554.739 372.279C555.072 371.972 555.847 371.254 556.491 370.412L542.192 359.478ZM523.13 377H522.271V395H523.13V377ZM527.914 378.989C518.728 371.595 509.85 365.743 501.285 361.578L493.414 377.766C500.461 381.192 508.197 386.225 516.628 393.011L527.914 378.989ZM497.349 360.672C496.744 360.672 497.325 360.544 498.306 361.148C498.833 361.472 499.356 361.939 499.779 362.536C500.194 363.122 500.4 363.672 500.495 364.052L483.032 368.417C483.838 371.643 485.768 374.567 488.873 376.477C491.716 378.227 494.803 378.672 497.349 378.672V360.672ZM500.763 366.234V365.805H482.763V366.234H500.763ZM500.763 365.805C500.763 367.026 500.49 367.948 500.316 368.432C500.132 368.941 499.942 369.279 499.861 369.416C499.711 369.67 499.679 369.661 499.961 369.336C500.509 368.704 501.563 367.648 503.312 366.1L491.386 352.618C489.411 354.365 487.673 356.031 486.359 357.547C485.71 358.296 484.979 359.218 484.364 360.259C483.889 361.063 482.763 363.097 482.763 365.805H500.763ZM506.014 361.792C508.642 352.431 509.787 339.563 509.787 323.695H491.787C491.787 339.051 490.64 349.959 488.684 356.927L506.014 361.792ZM509.779 323.332C509.498 316.361 509.357 309.464 509.357 302.641H491.357C491.357 309.711 491.503 316.85 491.794 324.059L509.779 323.332ZM509.357 302.641V288.891H491.357V302.641H509.357ZM509.357 288.891C509.357 286.735 509.487 283.373 509.77 278.693L491.803 277.604C491.514 282.377 491.357 286.176 491.357 288.891H509.357ZM505.676 270.592C503.504 269.187 500.961 268.603 499.302 268.287C497.33 267.911 495.004 267.647 492.433 267.455L491.094 285.405C493.321 285.571 494.898 285.772 495.934 285.969C496.448 286.067 496.707 286.141 496.779 286.165C496.908 286.206 496.508 286.1 495.897 285.705L505.676 270.592ZM497.386 269.402C497.095 269.169 496.876 268.987 496.718 268.85C496.552 268.706 496.497 268.65 496.516 268.669C496.528 268.681 496.583 268.737 496.666 268.83C496.742 268.917 496.892 269.093 497.073 269.346C497.236 269.575 497.546 270.035 497.842 270.685C498.105 271.263 498.615 272.547 498.615 274.281H480.615C480.615 277.427 482.252 279.565 482.426 279.808C482.927 280.51 483.451 281.06 483.788 281.397C484.497 282.106 485.337 282.814 486.141 283.458L497.386 269.402ZM498.615 274.281V273.852H480.615V274.281H498.615ZM497.445 278.289C501.799 270.605 513.641 255.377 533.807 232.041L520.188 220.271C500.251 243.342 487.17 259.911 481.785 269.414L497.445 278.289ZM629.023 258.812L633.074 250.776L631.163 249.812H629.023V258.812ZM673.71 286.742L668.677 294.203L670.958 295.742H673.71V286.742ZM674.57 286.742H683.57V277.742H674.57V286.742ZM668.124 294.906L662.963 287.533L659.124 290.22V294.906H668.124ZM667.695 296.195L659.645 292.17L658.674 294.112L658.695 296.282L667.695 296.195ZM668.554 355.922L659.558 356.179L659.67 360.119L662.643 362.709L668.554 355.922ZM680.155 361.938L679.765 370.929L679.96 370.938H680.155V361.938ZM684.023 361.938V370.938H686.147L688.048 369.987L684.023 361.938ZM684.882 361.508H693.882V346.946L680.857 353.458L684.882 361.508ZM684.882 365.375L691.758 371.182L693.882 368.667V365.375H684.882ZM670.273 376.977L667.687 368.356L664.929 369.183L663.163 371.458L670.273 376.977ZM641.054 370.961L646.739 363.984L644.256 361.961H641.054V370.961ZM623.866 382.562L628.932 390.002L629.404 389.68L629.832 389.301L623.866 382.562ZM598.085 376.977L603.334 369.666L602.833 369.306L602.288 369.018L598.085 376.977ZM583.046 370.531H574.046V377.525L580.823 379.252L583.046 370.531ZM588.202 362.797L594.129 369.57L596.659 367.357L597.118 364.027L588.202 362.797ZM589.921 334.867L598.919 335.075L598.924 334.856L598.918 334.636L589.921 334.867ZM588.632 284.594L583.82 276.988L579.504 279.719L579.635 284.824L588.632 284.594ZM613.124 271.703L617.131 279.762L617.928 279.366L618.631 278.822L613.124 271.703ZM628.593 258.812V249.812H624.865L622.229 252.449L628.593 258.812ZM615.702 285.883L611.332 278.015L606.637 280.623L606.703 285.993L615.702 285.883ZM616.562 355.922L607.562 356.032L607.619 360.67L611.429 363.315L616.562 355.922ZM631.601 364.945V373.945H634.085L636.218 372.671L631.601 364.945ZM641.913 359.359V368.359H650.913V359.359H641.913ZM641.913 301.352H650.913V297.534L648.168 294.881L641.913 301.352ZM620.859 285.023L614.495 291.387L615.247 292.14L616.154 292.696L620.859 285.023ZM619.57 283.734L625.934 277.37L621.133 272.57L615.199 275.867L619.57 283.734ZM624.971 266.849C633.061 270.927 647.519 279.931 668.677 294.203L678.743 279.281C657.649 265.051 642.315 255.435 633.074 250.776L624.971 266.849ZM673.71 295.742H674.57V277.742H673.71V295.742ZM665.57 286.742V287.602H683.57V286.742H665.57ZM665.57 287.602C665.57 286.325 665.936 285.443 666.117 285.081C666.294 284.725 666.399 284.655 666.21 284.87C666.035 285.068 665.7 285.406 665.137 285.882C664.582 286.351 663.866 286.901 662.963 287.533L673.285 302.279C675.707 300.584 677.964 298.754 679.707 296.779C681.249 295.031 683.57 291.857 683.57 287.602H665.57ZM659.124 294.906C659.124 294.25 659.204 293.725 659.272 293.383C659.342 293.032 659.423 292.764 659.479 292.597C659.584 292.281 659.669 292.122 659.645 292.17L675.744 300.22C676.066 299.577 677.124 297.486 677.124 294.906H659.124ZM658.695 296.282C658.981 326.06 659.268 346.054 659.558 356.179L677.55 355.665C677.267 345.738 676.981 325.914 676.694 296.109L658.695 296.282ZM662.643 362.709C667.546 366.979 673.362 370.651 679.765 370.929L680.546 352.946C680.557 352.946 680.054 352.921 678.927 352.336C677.806 351.755 676.321 350.751 674.465 349.135L662.643 362.709ZM680.155 370.938H684.023V352.938H680.155V370.938ZM688.048 369.987L688.907 369.558L680.857 353.458L679.998 353.888L688.048 369.987ZM675.882 361.508V365.375H693.882V361.508H675.882ZM678.006 359.568C672.847 365.677 669.391 367.845 667.687 368.356L672.859 385.597C679.748 383.53 686.032 377.963 691.758 371.182L678.006 359.568ZM663.163 371.458C661.242 373.933 659.825 375.397 658.901 376.161C658.451 376.532 658.3 376.585 658.436 376.52C658.564 376.458 659.262 376.141 660.39 376.141V394.141C664.788 394.141 668.262 391.775 670.365 390.038C672.735 388.081 675.078 385.463 677.382 382.496L663.163 371.458ZM660.39 376.141C661.557 376.141 662.412 376.385 662.718 376.478C663.097 376.594 663.345 376.705 663.415 376.737C663.549 376.799 663.485 376.78 663.149 376.575C662.501 376.179 661.447 375.464 659.911 374.338C656.876 372.112 652.504 368.681 646.739 363.984L635.369 377.938C641.205 382.694 645.857 386.353 649.267 388.853C650.954 390.09 652.478 391.149 653.763 391.934C654.394 392.32 655.136 392.744 655.915 393.101C656.332 393.292 658.12 394.141 660.39 394.141V376.141ZM641.054 361.961C638.474 361.961 636.218 362.81 634.704 363.502C633.039 364.264 631.345 365.278 629.681 366.402C626.345 368.653 622.393 371.847 617.901 375.824L629.832 389.301C634.077 385.544 637.358 382.936 639.751 381.321C640.951 380.511 641.747 380.075 642.194 379.87C642.793 379.596 642.273 379.961 641.054 379.961V361.961ZM618.801 375.123C617.282 376.158 616.238 376.771 615.598 377.091C615.283 377.249 615.202 377.266 615.312 377.23C615.376 377.209 615.542 377.158 615.795 377.109C616.041 377.061 616.454 377 616.991 377V395C619.846 395 622.34 393.845 623.648 393.19C625.3 392.365 627.085 391.259 628.932 390.002L618.801 375.123ZM616.991 377H612.265V395H616.991V377ZM612.265 377C613.172 377 613.855 377.148 614.167 377.225C614.521 377.311 614.769 377.401 614.876 377.441C615.079 377.518 615.115 377.549 614.917 377.446C614.535 377.248 613.838 376.846 612.746 376.151C610.596 374.783 607.48 372.642 603.334 369.666L592.836 384.287C597.069 387.327 600.506 389.698 603.082 391.337C604.354 392.146 605.563 392.872 606.632 393.426C607.159 393.699 607.806 394.012 608.506 394.277C608.976 394.454 610.431 395 612.265 395V377ZM602.288 369.018C595.746 365.563 589.976 363.01 585.269 361.81L580.823 379.252C583.421 379.915 587.677 381.658 593.882 384.935L602.288 369.018ZM592.046 370.531V369.672H574.046V370.531H592.046ZM592.046 369.672C592.046 370.89 591.723 371.717 591.593 372.011C591.456 372.32 591.379 372.38 591.535 372.171C591.679 371.98 591.948 371.656 592.397 371.195C592.84 370.739 593.411 370.199 594.129 369.57L582.276 356.024C580.329 357.728 578.524 359.52 577.135 361.371C575.944 362.959 574.046 365.895 574.046 369.672H592.046ZM597.118 364.027C598.05 357.272 598.63 347.546 598.919 335.075L580.924 334.659C580.639 346.967 580.074 355.861 579.287 361.567L597.118 364.027ZM598.918 334.636L597.629 284.363L579.635 284.824L580.924 335.098L598.918 334.636ZM593.444 292.199C596.485 290.276 604.2 286.191 617.131 279.762L609.117 263.644C596.41 269.962 587.798 274.472 583.82 276.988L593.444 292.199ZM618.631 278.822C626.21 272.959 631.785 268.349 634.957 265.176L622.229 252.449C619.959 254.719 615.221 258.703 607.617 264.585L618.631 278.822ZM628.593 267.812H629.023V249.812H628.593V267.812ZM606.703 285.993L607.562 356.032L625.561 355.811L624.702 285.772L606.703 285.993ZM611.429 363.315C615.818 366.362 619.429 368.75 622.19 370.407C623.556 371.227 624.87 371.962 626.054 372.521C626.644 372.799 627.343 373.101 628.093 373.349C628.708 373.552 630.006 373.945 631.601 373.945V355.945C632.855 355.945 633.699 356.244 633.745 356.259C633.927 356.32 633.943 356.34 633.736 356.242C633.327 356.049 632.591 355.656 631.451 354.972C629.199 353.621 625.971 351.498 621.694 348.529L611.429 363.315ZM636.218 372.671C639.3 370.829 641.588 369.509 643.138 368.669C643.928 368.242 644.406 368.004 644.641 367.897C644.768 367.839 644.695 367.879 644.489 367.95C644.383 367.987 644.144 368.066 643.812 368.144C643.543 368.207 642.844 368.359 641.913 368.359V350.359C640.205 350.359 638.846 350.855 638.593 350.943C638.051 351.131 637.555 351.345 637.171 351.52C636.386 351.878 635.494 352.339 634.565 352.842C632.678 353.865 630.132 355.338 626.983 357.22L636.218 372.671ZM650.913 359.359V301.352H632.913V359.359H650.913ZM648.168 294.881C641.255 288.197 633.717 282.351 625.563 277.351L616.154 292.696C623.182 297.006 629.681 302.045 635.658 307.822L648.168 294.881ZM627.223 278.659L625.934 277.37L613.206 290.098L614.495 291.387L627.223 278.659ZM615.199 275.867L611.332 278.015L620.073 293.75L623.94 291.602L615.199 275.867ZM735.559 387.074V396.074H738.547L740.941 394.288L735.559 387.074ZM711.497 367.738L704.724 373.665L704.862 373.823L705.008 373.975L711.497 367.738ZM708.489 364.301H699.489V367.682L701.716 370.227L708.489 364.301ZM708.489 363.012L699.738 360.911L699.489 361.947V363.012H708.489ZM710.208 281.801L706.136 273.774L701.258 276.249L701.208 281.719L710.208 281.801ZM740.286 261.605L746.038 268.527L746.153 268.432L746.265 268.332L740.286 261.605ZM750.169 253.871L755.943 246.967L753.436 244.871H750.169V253.871ZM763.489 263.754V272.754H772.489V263.754H763.489ZM763.489 263.324L754.551 262.273L754.489 262.797V263.324H763.489ZM764.348 254.73H773.348V254.557L773.342 254.385L764.348 254.73ZM763.919 237.113H772.919V236.222L772.744 235.348L763.919 237.113ZM763.489 234.965V225.965H752.511L754.664 236.73L763.489 234.965ZM789.27 216.059V207.059H786.211L783.786 208.923L789.27 216.059ZM790.559 216.059H799.559V207.059H790.559V216.059ZM790.13 243.559L781.132 243.377L781.128 243.573L781.132 243.769L790.13 243.559ZM791.848 268.48L783.018 270.218L784.446 277.48H791.848V268.48ZM809.895 257.738V248.738H807.028L804.689 250.397L809.895 257.738ZM790.559 285.668L785.643 278.129L781.559 280.793V285.668H790.559ZM799.583 367.738L808.408 365.973L807.901 363.44L806.128 361.561L799.583 367.738ZM800.013 369.887H809.013V368.996L808.838 368.122L800.013 369.887ZM800.013 372.465L803.243 380.865L809.013 378.646V372.465H800.013ZM780.677 386.645V395.645H783.71L786.125 393.808L780.677 386.645ZM780.247 386.645L773.662 392.78L776.332 395.645H780.247V386.645ZM762.63 366.879H771.63V348.936L757.248 359.665L762.63 366.879ZM762.63 352.27L769.086 358.54L771.63 355.921V352.27H762.63ZM763.059 289.105L772.058 289.274L772.23 280.105H763.059V289.105ZM736.848 281.371L740.504 273.147L738.758 272.371H736.848V281.371ZM736.419 281.371V272.371H727.599L727.421 281.189L736.419 281.371ZM736.419 353.988L727.421 354.165L727.49 357.699L729.945 360.241L736.419 353.988ZM735.559 378.074C736.963 378.074 737.412 378.572 736.351 377.987C735.519 377.527 734.236 376.666 732.442 375.225C728.872 372.356 724.077 367.84 717.986 361.502L705.008 373.975C711.306 380.527 716.716 385.679 721.167 389.256C723.384 391.037 725.565 392.593 727.651 393.745C729.509 394.77 732.33 396.074 735.559 396.074V378.074ZM718.27 361.812L715.262 358.374L701.716 370.227L704.724 373.665L718.27 361.812ZM717.489 364.301V363.012H699.489V364.301H717.489ZM717.241 365.112C718.383 360.354 718.778 352.605 718.778 342.816H700.778C700.778 352.793 700.314 358.508 699.738 360.911L717.241 365.112ZM718.778 342.816C718.778 333.77 718.921 313.476 719.207 281.882L701.208 281.719C700.922 313.29 700.778 333.672 700.778 342.816H718.778ZM714.279 289.827C724.864 284.458 735.448 277.328 746.038 268.527L734.534 254.683C724.786 262.784 715.318 269.117 706.136 273.774L714.279 289.827ZM746.265 268.332C749.122 265.793 751.23 264.007 752.654 262.892C753.385 262.32 753.778 262.05 753.914 261.964C753.991 261.915 753.825 262.028 753.488 262.182C753.313 262.261 752.978 262.405 752.52 262.539C752.106 262.66 751.268 262.871 750.169 262.871V244.871C748.055 244.871 746.451 245.608 746.024 245.802C745.333 246.117 744.736 246.471 744.302 246.745C743.417 247.304 742.477 248 741.56 248.717C739.69 250.181 737.251 252.262 734.307 254.879L746.265 268.332ZM744.395 260.775C748.375 264.104 751.613 266.707 754.044 268.511C755.242 269.4 756.398 270.21 757.432 270.836C757.94 271.143 758.59 271.511 759.311 271.83C759.75 272.024 761.38 272.754 763.489 272.754V254.754C764.569 254.754 765.381 254.96 765.748 255.066C766.165 255.186 766.46 255.31 766.593 255.369C766.848 255.482 766.925 255.541 766.753 255.437C766.427 255.239 765.792 254.814 764.77 254.055C762.761 252.565 759.84 250.227 755.943 246.967L744.395 260.775ZM772.489 263.754V263.324H754.489V263.754H772.489ZM772.427 264.376C772.963 259.82 773.348 256.262 773.348 254.73H755.348C755.348 254.625 755.333 255.084 755.178 256.628C755.043 257.985 754.835 259.859 754.551 262.273L772.427 264.376ZM773.342 254.385C773.057 246.982 772.919 241.241 772.919 237.113H754.919C754.919 241.579 755.067 247.583 755.355 255.076L773.342 254.385ZM772.744 235.348L772.314 233.2L754.664 236.73L755.094 238.878L772.744 235.348ZM763.489 243.965C765.669 243.965 767.344 243.133 767.399 243.108C767.907 242.882 768.345 242.639 768.638 242.471C769.249 242.119 769.914 241.689 770.562 241.254C771.891 240.361 773.67 239.093 775.847 237.496C780.228 234.283 786.541 229.507 794.755 223.195L783.786 208.923C775.6 215.214 769.416 219.891 765.203 222.981C763.084 224.535 761.542 225.629 760.525 226.312C760 226.665 759.737 226.826 759.663 226.868C759.613 226.896 759.77 226.802 760.058 226.674C760.201 226.61 760.509 226.477 760.931 226.347C761.242 226.251 762.203 225.965 763.489 225.965V243.965ZM789.27 225.059H790.559V207.059H789.27V225.059ZM781.559 216.059C781.559 220.103 781.418 229.173 781.132 243.377L799.128 243.74C799.414 229.585 799.559 220.321 799.559 216.059H781.559ZM781.132 243.769C781.417 255.935 781.988 264.984 783.018 270.218L800.679 266.743C799.99 263.24 799.416 255.675 799.127 243.348L781.132 243.769ZM791.848 277.48C794.424 277.48 796.706 276.49 797.76 276.015C799.193 275.37 800.769 274.507 802.414 273.529C805.726 271.557 809.981 268.711 815.102 265.079L804.689 250.397C799.712 253.927 795.91 256.452 793.207 258.061C791.844 258.873 790.922 259.353 790.368 259.603C789.435 260.023 790.239 259.48 791.848 259.48V277.48ZM809.895 266.738C808.651 266.738 806.065 266.421 803.854 264.21C801.642 261.998 801.325 259.412 801.325 258.168H819.325C819.325 256.637 818.936 253.836 816.582 251.482C814.227 249.127 811.426 248.738 809.895 248.738V266.738ZM801.325 258.168C801.325 263.343 797.887 270.144 785.643 278.129L795.476 293.206C809.586 284.004 819.325 272.472 819.325 258.168H801.325ZM781.559 285.668V356.137H799.559V285.668H781.559ZM781.559 356.137C781.559 359.065 782.901 361.383 783.322 362.115C783.994 363.282 784.84 364.463 785.711 365.583C787.476 367.853 789.96 370.655 793.038 373.916L806.128 361.561C803.19 358.448 801.162 356.13 799.919 354.532C799.287 353.719 799.005 353.279 798.924 353.139C798.886 353.072 798.987 353.234 799.118 353.579C799.217 353.842 799.559 354.784 799.559 356.137H781.559ZM790.758 369.503L791.187 371.652L808.838 368.122L808.408 365.973L790.758 369.503ZM791.013 369.887V372.465H809.013V369.887H791.013ZM796.782 364.065C795.734 364.468 794.833 365.047 794.619 365.182C794.175 365.461 793.682 365.791 793.172 366.142C792.143 366.852 790.795 367.821 789.158 369.021C785.871 371.431 781.221 374.924 775.229 379.481L786.125 393.808C792.092 389.27 796.644 385.852 799.803 383.536C801.389 382.373 802.573 381.524 803.388 380.963C803.801 380.678 804.057 380.51 804.191 380.426C804.554 380.198 804.058 380.551 803.243 380.865L796.782 364.065ZM780.677 377.645H780.247V395.645H780.677V377.645ZM786.831 380.509C780.97 374.219 776.621 369.48 773.753 366.262C772.307 364.64 771.305 363.479 770.69 362.73C770.368 362.337 770.252 362.178 770.254 362.181C770.262 362.192 770.293 362.236 770.34 362.308C770.382 362.374 770.467 362.508 770.571 362.695C770.661 362.857 770.851 363.214 771.041 363.704C771.168 364.033 771.63 365.239 771.63 366.879H753.63C753.63 368.554 754.102 369.808 754.253 370.197C754.465 370.746 754.69 371.173 754.826 371.419C755.102 371.916 755.383 372.326 755.556 372.571C755.925 373.093 756.359 373.64 756.771 374.143C757.625 375.184 758.824 376.565 760.315 378.238C763.32 381.609 767.779 386.466 773.662 392.78L786.831 380.509ZM757.248 359.665L730.178 379.861L740.941 394.288L768.011 374.093L757.248 359.665ZM771.63 352.27V325.629H753.63V352.27H771.63ZM771.63 325.629C771.63 316.615 771.772 304.504 772.058 289.274L754.061 288.936C753.774 304.215 753.63 316.453 753.63 325.629H771.63ZM763.059 280.105C759.225 280.105 751.986 278.25 740.504 273.147L733.193 289.595C744.914 294.805 755.149 298.105 763.059 298.105V280.105ZM736.848 272.371H736.419V290.371H736.848V272.371ZM727.421 281.189C727.134 295.39 726.989 306.489 726.989 314.457H744.989C744.989 306.67 745.131 295.712 745.417 281.553L727.421 281.189ZM726.989 314.457V319.613H744.989V314.457H726.989ZM726.989 319.613C726.989 328.007 727.134 339.533 727.421 354.165L745.417 353.812C745.131 339.224 744.989 327.834 744.989 319.613H726.989ZM729.945 360.241C733.082 363.488 735.858 366.147 738.2 368.055C739.359 369 740.615 369.929 741.903 370.665C742.906 371.237 745.166 372.441 748.02 372.441V354.441C749.182 354.441 750.007 354.704 750.33 354.82C750.691 354.949 750.871 355.058 750.834 355.036C750.744 354.985 750.343 354.731 749.57 354.101C748.044 352.858 745.843 350.791 742.892 347.736L729.945 360.241ZM748.02 372.441H748.88V354.441H748.02V372.441ZM748.88 372.441C751.813 372.441 754.176 371.195 755.292 370.557C756.701 369.752 758.106 368.72 759.443 367.633C762.139 365.443 765.378 362.358 769.086 358.54L756.173 345.999C752.649 349.629 749.979 352.13 748.092 353.663C747.137 354.439 746.582 354.803 746.361 354.929C745.848 355.222 746.914 354.441 748.88 354.441V372.441ZM890.866 255.375L897.443 249.231L892.753 244.211L886.674 247.411L890.866 255.375ZM925.241 291.039H934.241V287.138L931.393 284.471L925.241 291.039ZM925.241 293.188L931.655 299.501L934.241 296.874V293.188H925.241ZM884.85 328.852L879.157 321.881L875.85 324.582V328.852H884.85ZM877.545 335.727L871.591 328.978L867.949 332.191L868.636 336.999L877.545 335.727ZM877.975 338.734H886.975V338.095L886.885 337.462L877.975 338.734ZM877.116 350.766L868.15 349.977L868.116 350.371V350.766H877.116ZM884.85 361.508L888.966 353.504L888.042 353.029L887.033 352.777L884.85 361.508ZM894.733 365.805L891.492 374.201L893.056 374.805H894.733V365.805ZM910.202 356.352L906.177 348.302L905.661 348.559L905.183 348.881L910.202 356.352ZM920.514 359.359L926.525 366.058L932.982 360.263L927.428 353.598L920.514 359.359ZM883.991 386L880.266 394.193L884.518 396.126L888.546 393.762L883.991 386ZM855.631 373.109L859.355 364.916L858.461 364.509L857.499 364.305L855.631 373.109ZM844.889 370.102L853.799 368.829L853.763 368.581L853.714 368.337L844.889 370.102ZM844.459 367.953H835.459V368.844L835.634 369.718L844.459 367.953ZM850.475 361.938L856.332 368.771L859.119 366.382L859.44 362.726L850.475 361.938ZM849.616 285.883L848.622 294.828L849.117 294.883H849.616V285.883ZM841.881 281.156L837.69 273.192L832.881 275.723V281.156H841.881ZM877.545 280.727L884.009 274.464L870.254 260.269L868.578 279.963L877.545 280.727ZM878.405 319.398L869.445 320.245L871.13 338.086L884.434 326.08L878.405 319.398ZM897.741 302.641L901.766 310.69L906.741 308.203V302.641H897.741ZM897.741 302.211H906.741V298.794L904.473 296.238L897.741 302.211ZM884.289 261.519C901.501 279.945 913.17 292.064 919.088 297.607L931.393 284.471C925.996 279.415 914.749 267.758 897.443 249.231L884.289 261.519ZM916.241 291.039V293.188H934.241V291.039H916.241ZM918.826 286.874C910.216 295.622 897.048 307.269 879.157 321.881L890.543 335.822C908.602 321.072 922.361 308.943 931.655 299.501L918.826 286.874ZM875.85 328.852C875.85 327.386 876.212 326.275 876.401 325.764C876.616 325.181 876.85 324.742 876.991 324.492C877.27 323.999 877.529 323.661 877.614 323.55C877.808 323.3 877.929 323.179 877.85 323.263C877.73 323.39 877.427 323.694 876.856 324.231C875.746 325.276 874.007 326.846 871.591 328.978L883.5 342.475C885.953 340.31 887.867 338.586 889.192 337.339C889.838 336.731 890.448 336.139 890.937 335.622C891.162 335.384 891.512 335.003 891.857 334.556C892.019 334.346 892.335 333.926 892.652 333.366C892.742 333.206 893.85 331.399 893.85 328.852H875.85ZM868.636 336.999L869.065 340.007L886.885 337.462L886.455 334.454L868.636 336.999ZM868.975 338.734C868.975 339.749 868.738 343.291 868.15 349.977L886.081 351.554C886.639 345.206 886.975 340.728 886.975 338.734H868.975ZM868.116 350.766C868.116 354.972 869.04 359.357 871.745 363.114C874.519 366.967 878.466 369.189 882.667 370.239L887.033 352.777C886.521 352.649 886.303 352.521 886.262 352.495C886.239 352.481 886.297 352.518 886.353 352.597C886.48 352.773 886.116 352.432 886.116 350.766H868.116ZM880.734 369.511C883.635 371.003 887.255 372.566 891.492 374.201L897.974 357.408C894.047 355.893 891.078 354.59 888.966 353.504L880.734 369.511ZM894.733 374.805C896.72 374.805 898.31 374.137 898.596 374.024C899.239 373.769 899.851 373.47 900.361 373.206C901.4 372.668 902.635 371.95 903.991 371.121C906.736 369.444 910.497 366.995 915.22 363.822L905.183 348.881C900.524 352.01 897.017 354.288 894.605 355.762C893.383 356.509 892.568 356.972 892.086 357.221C891.834 357.352 891.817 357.348 891.964 357.29C892.038 357.261 892.269 357.171 892.611 357.079C892.873 357.008 893.663 356.805 894.733 356.805V374.805ZM914.227 364.401C913.874 364.578 913.704 364.589 913.853 364.562C913.996 364.536 914.337 364.492 914.928 364.492V346.492C912.237 346.492 909.082 346.849 906.177 348.302L914.227 364.401ZM914.928 364.492C914.081 364.492 913.42 364.317 913.003 364.161C912.6 364.01 912.392 363.864 912.383 363.859C912.371 363.85 912.481 363.926 912.709 364.146C912.934 364.363 913.231 364.679 913.6 365.121L927.428 353.598C926.058 351.954 924.466 350.331 922.629 349.059C920.823 347.809 918.187 346.492 914.928 346.492V364.492ZM914.503 352.661C903.787 362.278 892.102 370.803 879.435 378.238L888.546 393.762C902.234 385.728 914.897 376.493 926.525 366.058L914.503 352.661ZM887.715 377.807L859.355 364.916L851.907 381.303L880.266 394.193L887.715 377.807ZM857.499 364.305C854.001 363.563 851.561 362.984 850.055 362.563C849.259 362.34 848.988 362.233 849.027 362.249C849.059 362.262 849.158 362.304 849.304 362.376C849.437 362.443 849.705 362.582 850.04 362.803C850.333 362.996 850.959 363.435 851.617 364.163C852.222 364.831 853.452 366.4 853.799 368.829L835.98 371.374C836.335 373.866 837.602 375.501 838.27 376.24C838.992 377.038 839.709 377.551 840.121 377.823C840.95 378.371 841.739 378.715 842.174 378.894C843.127 379.286 844.207 379.618 845.202 379.896C847.277 380.477 850.171 381.151 853.764 381.913L857.499 364.305ZM853.714 368.337L853.285 366.188L835.634 369.718L836.064 371.867L853.714 368.337ZM853.459 367.953C853.459 369.176 853.203 370.13 853.021 370.675C852.83 371.249 852.616 371.681 852.478 371.938C852.211 372.433 851.976 372.734 851.94 372.78C851.854 372.89 851.928 372.783 852.327 372.383C853.084 371.627 854.38 370.444 856.332 368.771L844.618 355.104C842.559 356.869 840.848 358.407 839.599 359.656C838.996 360.259 838.318 360.975 837.731 361.729C837.445 362.098 837.021 362.677 836.629 363.404C836.364 363.897 835.459 365.605 835.459 367.953H853.459ZM859.44 362.726C860.607 349.455 861.194 336.73 861.194 324.555H843.194C843.194 336.155 842.635 348.352 841.51 361.149L859.44 362.726ZM861.194 324.555C861.194 311.619 860.98 301.707 860.529 294.952C860.308 291.635 860.01 288.742 859.569 286.535C859.364 285.512 859.023 284.069 858.376 282.681C858.058 282.001 857.43 280.808 856.292 279.67C855.073 278.451 852.81 276.883 849.616 276.883V294.883C846.636 294.883 844.582 293.416 843.564 292.398C842.627 291.461 842.193 290.57 842.064 290.293C841.793 289.711 841.801 289.477 841.918 290.065C842.121 291.081 842.361 293.021 842.569 296.149C842.978 302.285 843.194 311.709 843.194 324.555H861.194ZM850.61 276.938C849.668 276.833 849.033 276.702 848.641 276.593C848.231 276.48 848.251 276.435 848.508 276.592C848.786 276.762 849.437 277.231 850.011 278.156C850.623 279.141 850.881 280.22 850.881 281.156H832.881C832.881 286.167 835.699 289.859 839.122 291.951C842.07 293.753 845.543 294.486 848.622 294.828L850.61 276.938ZM846.073 289.121L895.057 263.339L886.674 247.411L837.69 273.192L846.073 289.121ZM868.578 279.963C868.289 283.351 868.116 286.114 868.116 288.031H886.116C886.116 286.94 886.228 284.834 886.513 281.49L868.578 279.963ZM868.116 288.031V290.609H886.116V288.031H868.116ZM868.116 290.609C868.116 300.961 868.556 310.841 869.445 320.245L887.365 318.552C886.535 309.766 886.116 300.453 886.116 290.609H868.116ZM884.434 326.08C890.293 320.793 894.788 316.794 897.942 314.061C899.525 312.689 900.72 311.679 901.558 310.999C901.981 310.656 902.256 310.443 902.412 310.328C902.72 310.101 902.391 310.378 901.766 310.69L893.716 294.591C892.803 295.047 892.023 295.624 891.713 295.853C891.251 296.194 890.743 296.594 890.217 297.021C889.157 297.881 887.792 299.038 886.153 300.459C882.862 303.311 878.261 307.405 872.375 312.717L884.434 326.08ZM906.741 302.641V302.211H888.741V302.641H906.741ZM904.473 296.238C899.828 291.003 892.987 283.729 884.009 274.464L871.082 286.99C880.007 296.201 886.63 303.25 891.009 308.184L904.473 296.238ZM992.461 213.266V204.266H991.03L989.669 204.71L992.461 213.266ZM995.469 356.352H1004.47V356.301L1004.47 356.25L995.469 356.352ZM1000.62 361.078L1006.91 354.636L1006.49 354.228L1006.03 353.878L1000.62 361.078ZM1009.65 365.375V374.375H1012.31L1014.54 372.931L1009.65 365.375ZM1013.52 362.367L1020.84 357.136L1015 348.962L1007.51 355.66L1013.52 362.367ZM1015.66 365.375H1024.66V362.491L1022.99 360.144L1015.66 365.375ZM1015.66 366.664L1022.25 372.793L1024.66 370.202V366.664H1015.66ZM993.32 386V395H996.143L998.46 393.388L993.32 386ZM992.461 386L986.559 392.795L989.098 395H992.461V386ZM961.523 368.812L953.474 372.837L955.276 376.442L959.165 377.498L961.523 368.812ZM960.664 367.094H951.664V369.218L952.614 371.119L960.664 367.094ZM966.68 360.648L971.733 368.096L973.61 366.822L974.659 364.812L966.68 360.648ZM969.258 349.906L978.15 351.292L978.265 350.557L978.257 349.813L969.258 349.906ZM967.969 224.867L963.459 217.078L958.915 219.709L958.969 224.96L967.969 224.867ZM992.461 222.266C987.423 222.266 985.098 218.43 984.877 218.077C984.286 217.133 984.028 216.313 983.961 216.1C983.859 215.773 983.805 215.526 983.784 215.427C983.76 215.311 983.748 215.238 983.746 215.226C983.743 215.207 983.754 215.276 983.774 215.468C983.794 215.651 983.816 215.896 983.842 216.215C983.946 217.525 984.06 219.618 984.18 222.573C984.418 228.444 984.663 237.315 984.913 249.226C985.413 273.028 985.932 308.764 986.469 356.453L1004.47 356.25C1003.93 308.548 1003.41 272.741 1002.91 248.848C1002.66 236.911 1002.41 227.897 1002.17 221.844C1002.04 218.837 1001.92 216.459 1001.79 214.787C1001.72 213.989 1001.64 213.149 1001.53 212.423C1001.48 212.123 1001.37 211.454 1001.14 210.711C1001.04 210.404 1000.75 209.514 1000.13 208.524C999.882 208.124 997.528 204.266 992.461 204.266V222.266ZM986.469 356.352C986.469 358.505 987.217 360.099 987.57 360.777C987.988 361.577 988.448 362.197 988.763 362.591C989.397 363.384 990.105 364.074 990.676 364.597C991.864 365.686 993.431 366.933 995.225 368.278L1006.03 353.878C1004.38 352.645 1003.37 351.816 1002.84 351.329C1002.55 351.064 1002.61 351.091 1002.82 351.347C1002.92 351.473 1003.22 351.855 1003.53 352.45C1003.69 352.761 1003.91 353.226 1004.09 353.824C1004.27 354.414 1004.47 355.283 1004.47 356.352H986.469ZM994.34 367.52C996.058 369.196 997.881 370.748 999.776 371.933C1001.53 373.028 1004.23 374.375 1007.5 374.375V356.375C1008.38 356.375 1008.98 356.562 1009.22 356.648C1009.46 356.736 1009.5 356.783 1009.32 356.669C1009.14 356.56 1008.85 356.354 1008.42 356.005C1008 355.66 1007.5 355.21 1006.91 354.636L994.34 367.52ZM1007.5 374.375H1009.65V356.375H1007.5V374.375ZM1014.54 372.931C1016.23 371.835 1017.89 370.527 1019.52 369.074L1007.51 355.66C1006.42 356.642 1005.5 357.34 1004.76 357.819L1014.54 372.931ZM1006.19 367.598L1008.34 370.606L1022.99 360.144L1020.84 357.136L1006.19 367.598ZM1006.66 365.375V366.664H1024.66V365.375H1006.66ZM1009.07 360.535C1002.86 367.214 995.903 373.24 988.181 378.612L998.46 393.388C1007.21 387.302 1015.15 380.437 1022.25 372.793L1009.07 360.535ZM993.32 377H992.461V395H993.32V377ZM998.363 379.205C987.691 369.936 976.198 363.471 963.882 360.127L959.165 377.498C968.477 380.026 977.608 385.02 986.559 392.795L998.363 379.205ZM969.573 364.788L968.714 363.069L952.614 371.119L953.474 372.837L969.573 364.788ZM969.664 367.094C969.664 368.612 969.188 369.656 968.964 370.072C968.738 370.492 968.585 370.616 968.747 370.442C968.89 370.288 969.188 370 969.711 369.577C970.224 369.161 970.89 368.668 971.733 368.096L961.626 353.201C959.374 354.73 957.248 356.382 955.589 358.16C954.227 359.618 951.664 362.731 951.664 367.094H969.664ZM974.659 364.812C975.619 362.971 976.252 360.779 976.72 358.828C977.227 356.714 977.7 354.181 978.15 351.292L960.365 348.52C959.956 351.146 959.569 353.16 959.217 354.627C958.826 356.256 958.6 356.678 958.7 356.485L974.659 364.812ZM978.257 349.813L976.968 224.774L958.969 224.96L960.258 349.999L978.257 349.813ZM972.478 232.656C981.716 227.308 989.276 223.772 995.253 221.822L989.669 204.71C982.04 207.199 973.271 211.398 963.459 217.078L972.478 232.656Z" fill="black" mask="url(#path-1-outside-1_38_2)"/>
<mask id="path-3-outside-2_38_2" maskUnits="userSpaceOnUse" x="51" y="53" width="341" height="402" fill="black">
<rect fill="white" x="51" y="53" width="341" height="402"/>
<path d="M259.594 70.1875C267.257 70.1875 283.697 76.3177 308.914 88.5781C318.945 91.3646 326.19 92.7578 330.648 92.7578H339.008C341.934 92.7578 346.113 89.4141 351.547 82.7266H354.891C355.727 82.7266 356.562 83.5625 357.398 85.2344C351.268 102.65 339.286 116.861 321.453 127.867C306.824 135.669 293.449 139.57 281.328 139.57C270.182 139.57 250.12 132.604 221.141 118.672C212.781 115.328 205.258 113.656 198.57 113.656C174.049 113.656 153.708 134.276 137.547 175.516C131.974 193.07 129.188 211.182 129.188 229.852C129.188 287.81 148.693 334.901 187.703 371.125C204.004 384.5 220.723 391.188 237.859 391.188C255.553 391.188 274.223 377.812 293.867 351.062C310.168 332.115 326.051 322.641 341.516 322.641C351.408 322.641 362.275 325.984 374.117 332.672V336.852C362.971 366.806 354.055 386.59 347.367 396.203H344.859C341.516 396.203 332.32 392.581 317.273 385.336C315.184 384.779 312.954 384.5 310.586 384.5H308.914C303.48 384.5 293.171 391.188 277.984 404.562C248.587 426.854 222.116 438 198.57 438H196.898C160.953 438 128.073 416.823 98.2578 374.469C78.1953 339.917 68.1641 303.693 68.1641 265.797C68.1641 204.913 94.3568 154.478 146.742 114.492C190.35 84.9557 224.345 70.1875 248.727 70.1875H259.594Z"/>
</mask>
<g filter="url(#filter2_i_38_2)">
<path d="M259.594 70.1875C267.257 70.1875 283.697 76.3177 308.914 88.5781C318.945 91.3646 326.19 92.7578 330.648 92.7578H339.008C341.934 92.7578 346.113 89.4141 351.547 82.7266H354.891C355.727 82.7266 356.562 83.5625 357.398 85.2344C351.268 102.65 339.286 116.861 321.453 127.867C306.824 135.669 293.449 139.57 281.328 139.57C270.182 139.57 250.12 132.604 221.141 118.672C212.781 115.328 205.258 113.656 198.57 113.656C174.049 113.656 153.708 134.276 137.547 175.516C131.974 193.07 129.188 211.182 129.188 229.852C129.188 287.81 148.693 334.901 187.703 371.125C204.004 384.5 220.723 391.188 237.859 391.188C255.553 391.188 274.223 377.812 293.867 351.062C310.168 332.115 326.051 322.641 341.516 322.641C351.408 322.641 362.275 325.984 374.117 332.672V336.852C362.971 366.806 354.055 386.59 347.367 396.203H344.859C341.516 396.203 332.32 392.581 317.273 385.336C315.184 384.779 312.954 384.5 310.586 384.5H308.914C303.48 384.5 293.171 391.188 277.984 404.562C248.587 426.854 222.116 438 198.57 438H196.898C160.953 438 128.073 416.823 98.2578 374.469C78.1953 339.917 68.1641 303.693 68.1641 265.797C68.1641 204.913 94.3568 154.478 146.742 114.492C190.35 84.9557 224.345 70.1875 248.727 70.1875H259.594Z" fill="#FF0000"/>
</g>
<path d="M308.914 88.5781L301.481 103.867L302.873 104.544L304.364 104.958L308.914 88.5781ZM351.547 82.7266V65.7266H343.455L338.353 72.0065L351.547 82.7266ZM357.398 85.2344L373.434 90.8789L375.827 84.0793L372.604 77.6317L357.398 85.2344ZM321.453 127.867L329.453 142.867L329.926 142.615L330.382 142.334L321.453 127.867ZM221.141 118.672L228.507 103.351L227.988 103.101L227.454 102.888L221.141 118.672ZM137.547 175.516L121.719 169.313L121.514 169.836L121.344 170.372L137.547 175.516ZM187.703 371.125L176.135 383.582L176.517 383.937L176.92 384.267L187.703 371.125ZM293.867 351.062L280.98 339.976L280.553 340.472L280.165 341L293.867 351.062ZM374.117 332.672H391.117V322.749L382.476 317.869L374.117 332.672ZM374.117 336.852L390.05 342.78L391.117 339.912V336.852H374.117ZM347.367 396.203V413.203H356.25L361.323 405.911L347.367 396.203ZM317.273 385.336L324.648 370.019L323.203 369.323L321.654 368.91L317.273 385.336ZM277.984 404.562L288.256 418.108L288.753 417.732L289.22 417.32L277.984 404.562ZM98.2578 374.469L83.5564 383.005L83.9293 383.647L84.3567 384.254L98.2578 374.469ZM146.742 114.492L137.209 100.417L136.81 100.687L136.428 100.979L146.742 114.492ZM259.594 87.1875C259.498 87.1875 260.417 87.2073 262.796 87.8124C265.031 88.3809 267.982 89.3157 271.731 90.7138C279.236 93.5123 289.109 97.8518 301.481 103.867L316.347 73.2893C303.502 67.044 292.546 62.1882 283.61 58.8565C275.311 55.7617 266.76 53.1875 259.594 53.1875V87.1875ZM304.364 104.958C314.436 107.756 323.655 109.758 330.648 109.758V75.7578C328.725 75.7578 323.455 74.9736 313.464 72.1983L304.364 104.958ZM330.648 109.758H339.008V75.7578H330.648V109.758ZM339.008 109.758C346.429 109.758 352.052 105.849 354.957 103.525C358.387 100.78 361.662 97.2362 364.741 93.4466L338.353 72.0065C337.221 73.4 336.249 74.5017 335.433 75.3528C334.605 76.2163 334.036 76.7201 333.717 76.9752C333.365 77.2571 333.535 77.0611 334.199 76.7489C334.839 76.4476 336.534 75.7578 339.008 75.7578V109.758ZM351.547 99.7266H354.891V65.7266H351.547V99.7266ZM354.891 99.7266C349.21 99.7266 345.559 96.8093 344.124 95.3743C343.36 94.6107 342.878 93.9448 342.627 93.5671C342.365 93.1746 342.228 92.9066 342.193 92.837L372.604 77.6317C371.786 75.9958 370.401 73.5688 368.165 71.3327C365.894 69.0618 361.407 65.7266 354.891 65.7266V99.7266ZM341.363 79.5899C336.696 92.8477 327.522 104.145 312.525 113.401L330.382 142.334C351.051 129.577 365.84 112.452 373.434 90.8789L341.363 79.5899ZM313.453 112.867C300.424 119.816 289.823 122.57 281.328 122.57V156.57C297.076 156.57 313.224 151.523 329.453 142.867L313.453 112.867ZM281.328 122.57C278.672 122.57 273.053 121.604 263.498 118.286C254.301 115.093 242.677 110.163 228.507 103.351L213.775 133.993C228.583 141.113 241.48 146.632 252.346 150.405C262.853 154.053 272.838 156.57 281.328 156.57V122.57ZM227.454 102.888C217.741 99.0023 208.028 96.6562 198.57 96.6562V130.656C202.488 130.656 207.822 131.654 214.827 134.456L227.454 102.888ZM198.57 96.6562C162.528 96.6562 138.233 127.174 121.719 169.313L153.375 181.718C169.184 141.378 185.571 130.656 198.57 130.656V96.6562ZM121.344 170.372C115.235 189.613 112.188 209.461 112.188 229.852H146.188C146.188 212.904 148.712 196.528 153.75 180.659L121.344 170.372ZM112.188 229.852C112.188 292.069 133.333 343.837 176.135 383.582L199.271 358.668C164.053 325.965 146.188 283.55 146.188 229.852H112.188ZM176.92 384.267C195.538 399.544 215.947 408.188 237.859 408.188V374.188C225.498 374.188 212.47 369.456 198.487 357.983L176.92 384.267ZM237.859 408.188C264.25 408.188 287.36 388.644 307.569 361.125L280.165 341C261.085 366.981 246.857 374.188 237.859 374.188V408.188ZM306.754 362.149C321.779 344.685 333.368 339.641 341.516 339.641V305.641C318.734 305.641 298.557 319.544 280.98 339.976L306.754 362.149ZM341.516 339.641C347.583 339.641 355.553 341.712 365.758 347.475L382.476 317.869C368.996 310.257 355.232 305.641 341.516 305.641V339.641ZM357.117 332.672V336.852H391.117V332.672H357.117ZM358.184 330.923C346.962 361.083 338.697 378.897 333.412 386.495L361.323 405.911C369.412 394.283 378.981 372.529 390.05 342.78L358.184 330.923ZM347.367 379.203H344.859V413.203H347.367V379.203ZM344.859 379.203C346.495 379.203 347.171 379.538 345.973 379.192C345.106 378.941 343.713 378.468 341.686 377.669C337.649 376.079 332.014 373.565 324.648 370.019L309.899 400.653C317.58 404.351 324.066 407.271 329.224 409.303C331.795 410.316 334.268 411.201 336.536 411.856C338.473 412.416 341.552 413.203 344.859 413.203V379.203ZM321.654 368.91C318.007 367.937 314.294 367.5 310.586 367.5V401.5C311.615 401.5 312.361 401.62 312.893 401.762L321.654 368.91ZM310.586 367.5H308.914V401.5H310.586V367.5ZM308.914 367.5C304.34 367.5 300.275 368.834 297.278 370.107C294.106 371.455 290.934 373.256 287.855 375.253C281.702 379.244 274.622 384.871 266.748 391.805L289.22 417.32C296.533 410.879 302.201 406.474 306.358 403.778C308.433 402.432 309.807 401.725 310.571 401.401C311.51 401.002 310.772 401.5 308.914 401.5V367.5ZM267.713 391.017C239.704 412.255 216.831 421 198.57 421V455C227.401 455 257.47 441.453 288.256 418.108L267.713 391.017ZM198.57 421H196.898V455H198.57V421ZM196.898 421C168.654 421 140.286 404.639 112.159 364.683L84.3567 384.254C115.86 429.007 153.253 455 196.898 455V421ZM112.959 365.932C94.3173 333.827 85.1641 300.529 85.1641 265.797H51.1641C51.1641 306.856 62.0734 346.006 83.5564 383.005L112.959 365.932ZM85.1641 265.797C85.1641 210.698 108.483 165.082 157.057 128.005L136.428 100.979C80.2302 143.874 51.1641 199.127 51.1641 265.797H85.1641ZM156.276 128.567C199.669 99.1766 229.912 87.1875 248.727 87.1875V53.1875C218.778 53.1875 181.032 70.7349 137.209 100.417L156.276 128.567ZM248.727 87.1875H259.594V53.1875H248.727V87.1875Z" fill="black" mask="url(#path-3-outside-2_38_2)"/>
</g>
<defs>
<filter id="filter0_dd_38_2" x="-4" y="0" width="1209" height="578" filterUnits="userSpaceOnUse" color-interpolation-filters="sRGB">
<feFlood flood-opacity="0" result="BackgroundImageFix"/>
<feColorMatrix in="SourceAlpha" type="matrix" values="0 0 0 0 0 0 0 0 0 0 0 0 0 0 0 0 0 0 127 0" result="hardAlpha"/>
<feOffset dy="4"/>
<feGaussianBlur stdDeviation="2"/>
<feComposite in2="hardAlpha" operator="out"/>
<feColorMatrix type="matrix" values="0 0 0 0 0 0 0 0 0 0 0 0 0 0 0 0 0 0 0.25 0"/>
<feBlend mode="normal" in2="BackgroundImageFix" result="effect1_dropShadow_38_2"/>
<feColorMatrix in="SourceAlpha" type="matrix" values="0 0 0 0 0 0 0 0 0 0 0 0 0 0 0 0 0 0 127 0" result="hardAlpha"/>
<feOffset dy="4"/>
<feGaussianBlur stdDeviation="2"/>
<feComposite in2="hardAlpha" operator="out"/>
<feColorMatrix type="matrix" values="0 0 0 0 0 0 0 0 0 0 0 0 0 0 0 0 0 0 0.25 0"/>
<feBlend mode="normal" in2="effect1_dropShadow_38_2" result="effect2_dropShadow_38_2"/>
<feBlend mode="normal" in="SourceGraphic" in2="effect2_dropShadow_38_2" result="shape"/>
</filter>
<filter id="filter1_i_38_2" x="409.396" y="210.795" width="616.268" height="186.279" filterUnits="userSpaceOnUse" color-interpolation-filters="sRGB">
<feFlood flood-opacity="0" result="BackgroundImageFix"/>
<feBlend mode="normal" in="SourceGraphic" in2="BackgroundImageFix" result="shape"/>
<feColorMatrix in="SourceAlpha" type="matrix" values="0 0 0 0 0 0 0 0 0 0 0 0 0 0 0 0 0 0 127 0" result="hardAlpha"/>
<feOffset dx="10" dy="10"/>
<feGaussianBlur stdDeviation="7.5"/>
<feComposite in2="hardAlpha" operator="arithmetic" k2="-1" k3="1"/>
<feColorMatrix type="matrix" values="0 0 0 0 0 0 0 0 0 0 0 0 0 0 0 0 0 0 1 0"/>
<feBlend mode="normal" in2="shape" result="effect1_innerShadow_38_2"/>
</filter>
<filter id="filter2_i_38_2" x="68.1641" y="70.1875" width="334.753" height="396.612" filterUnits="userSpaceOnUse" color-interpolation-filters="sRGB">
<feFlood flood-opacity="0" result="BackgroundImageFix"/>
<feBlend mode="normal" in="SourceGraphic" in2="BackgroundImageFix" result="shape"/>
<feColorMatrix in="SourceAlpha" type="matrix" values="0 0 0 0 0 0 0 0 0 0 0 0 0 0 0 0 0 0 127 0" result="hardAlpha"/>
<feOffset dx="67" dy="45"/>
<feGaussianBlur stdDeviation="14.4"/>
<feComposite in2="hardAlpha" operator="arithmetic" k2="-1" k3="1"/>
<feColorMatrix type="matrix" values="0 0 0 0 0 0 0 0 0 0 0 0 0 0 0 0 0 0 0.67 0"/>
<feBlend mode="normal" in2="shape" result="effect1_innerShadow_38_2"/>
</filter>
<clipPath id="clip0_38_2">
<rect width="1201" height="570" fill="white"/>
</clipPath>
</defs>
</svg>
